<?xml version="1.0" encoding="UTF-8" standalone="no"?>
<!-- Generator: Adobe Illustrator 21.1.0, SVG Export Plug-In . SVG Version: 6.00 Build 0)  -->

<svg
   xmlns:dc="http://purl.org/dc/elements/1.1/"
   xmlns:cc="http://creativecommons.org/ns#"
   xmlns:rdf="http://www.w3.org/1999/02/22-rdf-syntax-ns#"
   xmlns:svg="http://www.w3.org/2000/svg"
   xmlns="http://www.w3.org/2000/svg"
   xmlns:sodipodi="http://sodipodi.sourceforge.net/DTD/sodipodi-0.dtd"
   xmlns:inkscape="http://www.inkscape.org/namespaces/inkscape"
   version="1.1"
   id="Ebene_1"
   x="0px"
   y="0px"
   width="600px"
   height="584.2px"
   viewBox="0 0 600 584.2"
   style="enable-background:new 0 0 600 584.2;"
   xml:space="preserve"
   inkscape:version="0.91 r13725"
   sodipodi:docname="live-js-heart.svg"><metadata
     id="metadata91"><rdf:RDF><cc:Work
         rdf:about=""><dc:format>image/svg+xml</dc:format><dc:type
           rdf:resource="http://purl.org/dc/dcmitype/StillImage" /><dc:title></dc:title></cc:Work></rdf:RDF></metadata><defs
     id="defs89" /><sodipodi:namedview
     pagecolor="#ffffff"
     bordercolor="#666666"
     borderopacity="1"
     objecttolerance="10"
     gridtolerance="10"
     guidetolerance="10"
     inkscape:pageopacity="0"
     inkscape:pageshadow="2"
     inkscape:window-width="1616"
     inkscape:window-height="1114"
     id="namedview87"
     showgrid="false"
     inkscape:zoom="1.1426032"
     inkscape:cx="229.98444"
     inkscape:cy="310.11916"
     inkscape:window-x="0"
     inkscape:window-y="0"
     inkscape:window-maximized="0"
     inkscape:current-layer="g7" /><style
     type="text/css"
     id="style3">
	.st0{fill:none;stroke:#1D1D1B;}
</style><g
     id="g5"><g
       id="g7"><g
         id="g9"
         transform="matrix(1.2445837,0,0,1.2445837,-71.636963,15.470663)"><path
           d="m 263.3,81.9 0,0 c 0,7.8 -6.3,14.1 -14.1,14.1 l -11.3,0 c -7.8,0 -14.1,-6.3 -14.1,-14.1 l 0,0 c 0,-7.8 6.3,-14.1 14.1,-14.1 l 11.3,0 c 7.8,0 14.1,6.3 14.1,14.1 z"
           id="path11"
           inkscape:connector-curvature="0" /><path
           d="m 319.8,127.1 0,0 c 0,7.8 -6.3,14.1 -14.1,14.1 l -11.3,0 c -7.8,0 -14.1,-6.3 -14.1,-14.1 l 0,0 c 0,-7.8 6.3,-14.1 14.1,-14.1 l 11.3,0 c 7.7,-0.1 14.1,6.3 14.1,14.1 z"
           id="path13"
           inkscape:connector-curvature="0" /><path
           d="m 376.2,53.6 0,0 c 0,7.8 -6.3,14.1 -14.1,14.1 l -11.3,0 c -7.8,0 -14.1,-6.3 -14.1,-14.1 l 0,0 c 0,-7.8 6.3,-14.1 14.1,-14.1 l 11.3,0 c 7.8,0 14.1,6.3 14.1,14.1 z"
           id="path15"
           inkscape:connector-curvature="0" /><path
           d="m 432.7,14.1 0,0 c 0,7.8 -6.3,14.1 -14.1,14.1 l -11.3,0 c -7.8,0 -14.1,-6.3 -14.1,-14.1 l 0,0 C 393.2,6.3 399.5,0 407.3,0 l 11.3,0 c 7.8,0 14.1,6.3 14.1,14.1 z"
           id="path17"
           inkscape:connector-curvature="0" /><path
           d="m 489.2,117 0,0 c 0,7.8 -6.3,14.1 -14.1,14.1 l -11.3,0 c -7.8,0 -14.1,-6.3 -14.1,-14.1 l 0,0 c 0,-7.8 6.3,-14.1 14.1,-14.1 l 11.3,0 c 7.7,0 14.1,6.3 14.1,14.1 z"
           id="path19"
           inkscape:connector-curvature="0" /><path
           d="m 206.8,64.9 0,0 c 0,7.8 -6.3,14.1 -14.1,14.1 l -11.3,0 c -7.8,0 -14.1,-6.3 -14.1,-14.1 l 0,0 c 0,-7.8 6.3,-14.1 14.1,-14.1 l 11.3,0 c 7.8,0 14.1,6.3 14.1,14.1 z"
           id="path21"
           inkscape:connector-curvature="0" /><path
           d="m 150.4,112.9 0,0 c 0,7.8 -6.3,14.1 -14.1,14.1 l -11.3,0 c -7.8,0 -14.1,-6.3 -14.1,-14.1 l 0,0 c 0,-7.8 6.3,-14.1 14.1,-14.1 l 11.3,0 c 7.7,0 14.1,6.3 14.1,14.1 z"
           id="path23"
           inkscape:connector-curvature="0" /><path
           d="m 468,150.9 c -7.3,0.7 -12.7,7.3 -12.7,14.7 l 0,19.2 c 0,7.1 -5.8,12.9 -12.9,12.9 l -2.4,0 c -7.1,0 -12.9,-5.8 -12.9,-12.9 l 0,-53 c 0,-7.4 -5.4,-14 -12.7,-14.7 -8.4,-0.8 -15.5,5.8 -15.5,14.1 l 0,25.4 c 0,7.1 -5.8,12.9 -12.9,12.9 l -2.4,0 c -7.1,0 -12.9,-5.8 -12.9,-12.9 l 0,-13.6 c 0,-7.4 -5.4,-14 -12.7,-14.7 -8.4,-0.8 -15.5,5.8 -15.5,14.1 l 0,59.3 c 0,7.1 -5.8,12.9 -12.9,12.9 l -2.6,0 c -7.1,0 -12.9,-5.8 -12.9,-12.9 l 0,-24.8 c 0,-7.4 -5.4,-14 -12.7,-14.7 -8.4,-0.8 -15.5,5.8 -15.5,14.1 l 0,8.5 c 0,7.1 -5.8,12.9 -12.9,12.9 l -2.4,0 c -7.1,0 -12.9,-5.8 -12.9,-12.9 l 0,-41.8 c 0,-7.4 -5.4,-14 -12.7,-14.7 -8.4,-0.8 -15.5,5.8 -15.5,14.1 l 0,59.3 c 0,7.1 -5.8,12.9 -12.9,12.9 l -2.4,0 c -7.1,0 -12.9,-5.8 -12.9,-12.9 l 0,-70 c 0,-7.4 -5.4,-14 -12.7,-14.7 -8.4,-0.8 -15.5,5.8 -15.5,14.1 l 0,45.2 c 0,7.1 -5.8,12.9 -12.9,12.9 l -2.4,0 c -7.1,0 -12.9,-5.8 -12.9,-12.9 l 0,-10.7 c 0,-7.4 -5.4,-14 -12.7,-14.7 -8.4,-0.8 -15.5,5.8 -15.5,14.1 l 0,98.2 c 0,7.4 5.4,14 12.7,14.7 8.4,0.8 15.5,-5.8 15.5,-14.1 l 0,0 c 0,-7.1 5.8,-12.9 12.9,-12.9 l 2.4,0 c 7.1,0 12.9,5.8 12.9,12.9 l 0,70 c 0,7.4 5.4,14 12.7,14.7 8.4,0.8 15.5,-5.8 15.5,-14.1 l 0,-11.3 c 0,-7.1 5.8,-12.9 12.9,-12.9 l 2.4,0 c 7.1,0 12.9,5.8 12.9,12.9 l 0,58.7 c 0,7.4 5.4,14 12.7,14.7 8.4,0.8 15.5,-5.8 15.5,-14.1 l 0,-67.8 c 0,-7.1 5.8,-12.9 12.9,-12.9 l 2.4,0 c 7.1,0 12.9,5.8 12.9,12.9 l 0,109.5 c 0,7.4 5.4,14 12.7,14.7 8.4,0.8 15.5,-5.8 15.5,-14.1 l 0,-76.2 c 0,-7.1 5.8,-12.9 12.9,-12.9 l 2.4,0 c 7.1,0 12.9,5.8 12.9,12.9 l 0,33.3 c 0,7.4 5.4,14 12.7,14.7 8.4,0.8 15.5,-5.8 15.5,-14.1 l 0,-101.6 c 0,-7.1 5.8,-12.9 12.9,-12.9 l 2.4,0 c 7.1,0 12.9,5.8 12.9,12.9 l 0,53 c 0,7.4 5.4,14 12.7,14.7 8.4,0.8 15.5,-5.8 15.5,-14.1 l 0,-70.6 c 0,-7.1 5.8,-12.9 12.9,-12.9 l 3,0 c 6.8,0 12.3,5.5 12.3,12.3 l 0,0 c 0,7.4 5.4,14 12.7,14.7 8.4,0.8 15.5,-5.8 15.5,-14.1 l 0,-98.8 c 0.2,-8.3 -6.9,-14.9 -15.3,-14.1 z"
           id="path25"
           inkscape:connector-curvature="0" /></g></g><g
       id="g47"
       transform="matrix(1.2445837,0,0,1.2445837,-71.636963,15.470663)"><g
         id="g49"><path
           class="st0"
           d="m 263.3,81.9 0,0 c 0,7.8 -6.3,14.1 -14.1,14.1 l -11.3,0 c -7.8,0 -14.1,-6.3 -14.1,-14.1 l 0,0 c 0,-7.8 6.3,-14.1 14.1,-14.1 l 11.3,0 c 7.8,0 14.1,6.3 14.1,14.1 z"
           id="path51"
           inkscape:connector-curvature="0"
           style="fill:none;stroke:#1d1d1b" /><path
           class="st0"
           d="m 319.8,127.1 0,0 c 0,7.8 -6.3,14.1 -14.1,14.1 l -11.3,0 c -7.8,0 -14.1,-6.3 -14.1,-14.1 l 0,0 c 0,-7.8 6.3,-14.1 14.1,-14.1 l 11.3,0 c 7.7,-0.1 14.1,6.3 14.1,14.1 z"
           id="path53"
           inkscape:connector-curvature="0"
           style="fill:none;stroke:#1d1d1b" /><path
           class="st0"
           d="m 376.2,53.6 0,0 c 0,7.8 -6.3,14.1 -14.1,14.1 l -11.3,0 c -7.8,0 -14.1,-6.3 -14.1,-14.1 l 0,0 c 0,-7.8 6.3,-14.1 14.1,-14.1 l 11.3,0 c 7.8,0 14.1,6.3 14.1,14.1 z"
           id="path55"
           inkscape:connector-curvature="0"
           style="fill:none;stroke:#1d1d1b" /><path
           class="st0"
           d="m 432.7,14.1 0,0 c 0,7.8 -6.3,14.1 -14.1,14.1 l -11.3,0 c -7.8,0 -14.1,-6.3 -14.1,-14.1 l 0,0 C 393.2,6.3 399.5,0 407.3,0 l 11.3,0 c 7.8,0 14.1,6.3 14.1,14.1 z"
           id="path57"
           inkscape:connector-curvature="0"
           style="fill:none;stroke:#1d1d1b" /><path
           class="st0"
           d="m 489.2,117 0,0 c 0,7.8 -6.3,14.1 -14.1,14.1 l -11.3,0 c -7.8,0 -14.1,-6.3 -14.1,-14.1 l 0,0 c 0,-7.8 6.3,-14.1 14.1,-14.1 l 11.3,0 c 7.7,0 14.1,6.3 14.1,14.1 z"
           id="path59"
           inkscape:connector-curvature="0"
           style="fill:none;stroke:#1d1d1b" /><path
           class="st0"
           d="m 206.8,64.9 0,0 c 0,7.8 -6.3,14.1 -14.1,14.1 l -11.3,0 c -7.8,0 -14.1,-6.3 -14.1,-14.1 l 0,0 c 0,-7.8 6.3,-14.1 14.1,-14.1 l 11.3,0 c 7.8,0 14.1,6.3 14.1,14.1 z"
           id="path61"
           inkscape:connector-curvature="0"
           style="fill:none;stroke:#1d1d1b" /><path
           class="st0"
           d="m 150.4,112.9 0,0 c 0,7.8 -6.3,14.1 -14.1,14.1 l -11.3,0 c -7.8,0 -14.1,-6.3 -14.1,-14.1 l 0,0 c 0,-7.8 6.3,-14.1 14.1,-14.1 l 11.3,0 c 7.7,0 14.1,6.3 14.1,14.1 z"
           id="path63"
           inkscape:connector-curvature="0"
           style="fill:none;stroke:#1d1d1b" /><path
           class="st0"
           d="m 468,150.9 c -7.3,0.7 -12.7,7.3 -12.7,14.7 l 0,19.2 c 0,7.1 -5.8,12.9 -12.9,12.9 l -2.4,0 c -7.1,0 -12.9,-5.8 -12.9,-12.9 l 0,-53 c 0,-7.4 -5.4,-14 -12.7,-14.7 -8.4,-0.8 -15.5,5.8 -15.5,14.1 l 0,25.4 c 0,7.1 -5.8,12.9 -12.9,12.9 l -2.4,0 c -7.1,0 -12.9,-5.8 -12.9,-12.9 l 0,-13.6 c 0,-7.4 -5.4,-14 -12.7,-14.7 -8.4,-0.8 -15.5,5.8 -15.5,14.1 l 0,59.3 c 0,7.1 -5.8,12.9 -12.9,12.9 l -2.6,0 c -7.1,0 -12.9,-5.8 -12.9,-12.9 l 0,-24.8 c 0,-7.4 -5.4,-14 -12.7,-14.7 -8.4,-0.8 -15.5,5.8 -15.5,14.1 l 0,8.5 c 0,7.1 -5.8,12.9 -12.9,12.9 l -2.4,0 c -7.1,0 -12.9,-5.8 -12.9,-12.9 l 0,-41.8 c 0,-7.4 -5.4,-14 -12.7,-14.7 -8.4,-0.8 -15.5,5.8 -15.5,14.1 l 0,59.3 c 0,7.1 -5.8,12.9 -12.9,12.9 l -2.4,0 c -7.1,0 -12.9,-5.8 -12.9,-12.9 l 0,-70 c 0,-7.4 -5.4,-14 -12.7,-14.7 -8.4,-0.8 -15.5,5.8 -15.5,14.1 l 0,45.2 c 0,7.1 -5.8,12.9 -12.9,12.9 l -2.4,0 c -7.1,0 -12.9,-5.8 -12.9,-12.9 l 0,-10.7 c 0,-7.4 -5.4,-14 -12.7,-14.7 -8.4,-0.8 -15.5,5.8 -15.5,14.1 l 0,98.2 c 0,7.4 5.4,14 12.7,14.7 8.4,0.8 15.5,-5.8 15.5,-14.1 l 0,0 c 0,-7.1 5.8,-12.9 12.9,-12.9 l 2.4,0 c 7.1,0 12.9,5.8 12.9,12.9 l 0,70 c 0,7.4 5.4,14 12.7,14.7 8.4,0.8 15.5,-5.8 15.5,-14.1 l 0,-11.3 c 0,-7.1 5.8,-12.9 12.9,-12.9 l 2.4,0 c 7.1,0 12.9,5.8 12.9,12.9 l 0,58.7 c 0,7.4 5.4,14 12.7,14.7 8.4,0.8 15.5,-5.8 15.5,-14.1 l 0,-67.8 c 0,-7.1 5.8,-12.9 12.9,-12.9 l 2.4,0 c 7.1,0 12.9,5.8 12.9,12.9 l 0,109.5 c 0,7.4 5.4,14 12.7,14.7 8.4,0.8 15.5,-5.8 15.5,-14.1 l 0,-76.2 c 0,-7.1 5.8,-12.9 12.9,-12.9 l 2.4,0 c 7.1,0 12.9,5.8 12.9,12.9 l 0,33.3 c 0,7.4 5.4,14 12.7,14.7 8.4,0.8 15.5,-5.8 15.5,-14.1 l 0,-101.6 c 0,-7.1 5.8,-12.9 12.9,-12.9 l 2.4,0 c 7.1,0 12.9,5.8 12.9,12.9 l 0,53 c 0,7.4 5.4,14 12.7,14.7 8.4,0.8 15.5,-5.8 15.5,-14.1 l 0,-70.6 c 0,-7.1 5.8,-12.9 12.9,-12.9 l 3,0 c 6.8,0 12.3,5.5 12.3,12.3 l 0,0 c 0,7.4 5.4,14 12.7,14.7 8.4,0.8 15.5,-5.8 15.5,-14.1 l 0,-98.8 c 0.2,-8.3 -6.9,-14.9 -15.3,-14.1 z"
           id="path65"
           inkscape:connector-curvature="0"
           style="fill:none;stroke:#1d1d1b" /></g></g></g></svg>